<?xml version="1.0" encoding="utf-8"?>
<svg width="24px" height="24px" viewBox="0 0 24 24" version="1.1" xmlns:xlink="http://www.w3.org/1999/xlink" xmlns="http://www.w3.org/2000/svg">
  <g id="Icon">
    <path d="M0.00070715 0.877972L9.19446e-13 0.87868L3.51701e-14 16.435L2.12132 18.5563L4.24264 16.435L4.24264 0.87868L4.24193 0.877972Q4.13775 0.773794 4.02387 0.680327Q3.90998 0.586861 3.78748 0.505008Q3.66497 0.423155 3.53504 0.353704Q3.4051 0.284252 3.26899 0.227871Q3.13287 0.17149 2.99188 0.128722Q2.8509 0.0859537 2.7064 0.0572107Q2.5619 0.0284678 2.41527 0.0140268Q2.26865 -0.000414204 2.12132 -0.000414204Q1.97399 -0.000414204 1.82737 0.0140268Q1.68074 0.0284678 1.53624 0.0572107Q1.39174 0.0859537 1.25076 0.128722Q1.10977 0.17149 0.973653 0.227871Q0.837536 0.284252 0.707601 0.353704Q0.577667 0.423155 0.455165 0.505008Q0.332664 0.586861 0.218775 0.680327Q0.104886 0.773794 0.00070715 0.877972Z" transform="matrix(0.70710677 0.70710677 -0.70710677 0.70710677 17.18198 4.217517)" id="Line" fill="none" fill-rule="evenodd" stroke="#363837" stroke-width="1" stroke-linecap="round" stroke-linejoin="round" />
    <path d="M0 0C0 0 1.19012 0.206347 1.90788 0.924103C2.62563 1.64186 2.92123 2.6709 2.92123 2.6709" transform="translate(15.248035 6.4975705)" id="Line-2" fill="none" fill-rule="evenodd" stroke="#363837" stroke-width="1" stroke-linecap="round" stroke-linejoin="round" />
  </g>
</svg>