<?xml version="1.0" encoding="utf-8"?>
<svg width="90px" height="90px" viewBox="0 0 90 90" version="1.1" xmlns:xlink="http://www.w3.org/1999/xlink" xmlns="http://www.w3.org/2000/svg">
  <g id="Video-Play-Button">
    <path d="M45 90C69.8528 90 90 69.8528 90 45C90 20.1472 69.8528 0 45 0C20.1472 0 0 20.1472 0 45C0 69.8528 20.1472 90 45 90Z" transform="translate(-7.6293945E-06 0)" id="Oval" fill="#FFFFFF" fill-opacity="0.60228795" fill-rule="evenodd" stroke="none" />
    <path d="M3.01446 1.77776L36.0803 21.2781Q36.1362 21.3111 36.1898 21.3476Q36.2434 21.3841 36.2945 21.424Q36.3457 21.4639 36.3941 21.507Q36.4426 21.5501 36.4881 21.5963Q36.5337 21.6425 36.5761 21.6915Q36.6186 21.7406 36.6578 21.7923Q36.697 21.844 36.7327 21.8981Q36.7685 21.9522 36.8006 22.0085Q36.8328 22.0648 36.8613 22.1231Q36.8897 22.1814 36.9143 22.2414Q36.9389 22.3014 36.9596 22.3629Q36.9803 22.4244 36.9969 22.4871Q37.0136 22.5498 37.0261 22.6134Q37.0387 22.6771 37.047 22.7414Q37.0554 22.8057 37.0596 22.8704Q37.0638 22.9351 37.0638 23Q37.0638 23.0649 37.0596 23.1296Q37.0554 23.1943 37.047 23.2586Q37.0387 23.3229 37.0261 23.3866Q37.0136 23.4502 36.9969 23.5129Q36.9803 23.5756 36.9596 23.6371Q36.9389 23.6986 36.9143 23.7586Q36.8897 23.8186 36.8613 23.8769Q36.8328 23.9352 36.8006 23.9915Q36.7685 24.0478 36.7327 24.1019Q36.697 24.156 36.6578 24.2077Q36.6186 24.2594 36.5761 24.3085Q36.5337 24.3575 36.4881 24.4037Q36.4426 24.4499 36.3941 24.493Q36.3457 24.5361 36.2945 24.576Q36.2434 24.6159 36.1898 24.6524Q36.1362 24.6889 36.0803 24.7219L3.01446 44.2222Q2.95784 44.2556 2.89916 44.2852Q2.84047 44.3148 2.77996 44.3405Q2.71946 44.3662 2.65739 44.3878Q2.59533 44.4095 2.53198 44.427Q2.46863 44.4445 2.40427 44.4579Q2.3399 44.4712 2.2748 44.4803Q2.2097 44.4893 2.14414 44.4941Q2.07859 44.4989 2.01286 44.4993Q1.94713 44.4998 1.88152 44.4959Q1.8159 44.4921 1.75068 44.4839Q1.68546 44.4757 1.62092 44.4633Q1.55637 44.4509 1.49279 44.4342Q1.4292 44.4176 1.36684 44.3968Q1.30449 44.376 1.24363 44.3512Q1.18277 44.3263 1.12368 44.2975Q1.06459 44.2688 1.00751 44.2362Q0.950438 44.2036 0.895629 44.1673Q0.840819 44.131 0.78851 44.0912Q0.736202 44.0514 0.686622 44.0082Q0.637041 43.9651 0.590403 43.9188Q0.543764 43.8725 0.500269 43.8232Q0.456773 43.7739 0.416609 43.7219Q0.376445 43.6698 0.339786 43.6153Q0.303126 43.5607 0.27013 43.5039Q0.237134 43.447 0.207943 43.3881Q0.178753 43.3292 0.153494 43.2686Q0.128235 43.2079 0.107017 43.1457Q0.0857989 43.0835 0.0687135 43.02Q0.051628 42.9565 0.038749 42.8921Q0.0258699 42.8276 0.0172528 42.7624Q0.00863574 42.6973 0.00431787 42.6317Q0 42.5661 0 42.5004L0 3.49963Q0 3.4339 0.00431787 3.36831Q0.00863574 3.30273 0.0172528 3.23756Q0.0258699 3.1724 0.038749 3.10795Q0.051628 3.04349 0.0687135 2.98002Q0.0857989 2.91655 0.107017 2.85434Q0.128235 2.79213 0.153494 2.73145Q0.178753 2.67076 0.207943 2.61187Q0.237134 2.55298 0.27013 2.49613Q0.303126 2.43928 0.339786 2.38473Q0.376445 2.33017 0.416609 2.27814Q0.456773 2.22611 0.500269 2.17683Q0.543764 2.12755 0.590403 2.08123Q0.637041 2.03492 0.686622 1.99176Q0.736202 1.94861 0.78851 1.90881Q0.840819 1.86901 0.895629 1.83273Q0.950438 1.79644 1.00751 1.76384Q1.06459 1.73124 1.12368 1.70246Q1.18277 1.67368 1.24363 1.64884Q1.30449 1.624 1.36684 1.60322Q1.4292 1.58243 1.49279 1.56579Q1.55637 1.54914 1.62092 1.53671Q1.68546 1.52428 1.75068 1.51611Q1.8159 1.50795 1.88152 1.50409Q1.94713 1.50022 2.01286 1.50068Q2.07859 1.50113 2.14414 1.50591Q2.2097 1.51068 2.2748 1.51975Q2.3399 1.52882 2.40427 1.54214Q2.46863 1.55547 2.53198 1.57299Q2.59533 1.59052 2.65739 1.61217Q2.71946 1.63382 2.77996 1.65949Q2.84047 1.68517 2.89916 1.71477Q2.95784 1.74437 3.01446 1.77776Z" transform="translate(29.999992 22)" id="Rectangle" fill="#FFFFFF" fill-rule="evenodd" stroke="none" />
  </g>
</svg>