<?xml version="1.0" encoding="utf-8"?>
<svg width="24px" height="24px" viewBox="0 0 24 24" version="1.1" xmlns:xlink="http://www.w3.org/1999/xlink" xmlns="http://www.w3.org/2000/svg">
  <g id="Icon">
    <path d="M6 14.7101C5.45933 14.5492 4.94604 14.3247 4.46879 14.0454L4.30733 14.2068C3.91681 14.5974 3.28364 14.5974 2.89312 14.2068L1.79317 13.1069C1.40265 12.7164 1.40265 12.0832 1.79317 11.6927L1.95464 11.5312C1.67526 11.054 1.45079 10.5407 1.28988 10L1 10C0.447715 10 0 9.55229 0 9L0 7C0 6.44772 0.447715 6 1 6L1.28988 6C1.45079 5.45933 1.67526 4.94604 1.95464 4.46879L1.79317 4.30733C1.40265 3.91681 1.40265 3.28364 1.79317 2.89312L2.89312 1.79317C3.28364 1.40265 3.91681 1.40265 4.30733 1.79317L4.46879 1.95464C4.94604 1.67526 5.45933 1.45079 6 1.28988L6 1C6 0.447715 6.44772 0 7 0L9 0C9.55229 0 10 0.447715 10 1L10 1.28988C10.5407 1.45079 11.054 1.67526 11.5312 1.95464L11.6927 1.79317C12.0832 1.40265 12.7164 1.40265 13.1069 1.79317L14.2068 2.89312C14.5974 3.28364 14.5974 3.91681 14.2068 4.30733L14.0454 4.46879C14.3247 4.94604 14.5492 5.45933 14.7101 6L15 6C15.5523 6 16 6.44772 16 7L16 9C16 9.55229 15.5523 10 15 10L14.7101 10C14.5492 10.5407 14.3247 11.054 14.0454 11.5312L14.2068 11.6927C14.5974 12.0832 14.5974 12.7164 14.2068 13.1069L13.1069 14.2068C12.7164 14.5974 12.0832 14.5974 11.6927 14.2068L11.5312 14.0454C11.054 14.3247 10.5407 14.5492 10 14.7101L10 15C10 15.5523 9.55229 16 9 16L7 16C6.44772 16 6 15.5523 6 15L6 14.7101L6 14.7101Z" transform="translate(4 4)" id="Path" fill="none" fill-rule="evenodd" stroke="#363837" stroke-width="1" stroke-linecap="round" stroke-linejoin="round" />
    <path d="M4 8C6.20914 8 8 6.20914 8 4C8 1.79086 6.20914 0 4 0C1.79086 0 0 1.79086 0 4C0 6.20914 1.79086 8 4 8Z" transform="translate(8 8)" id="Oval" fill="none" fill-rule="evenodd" stroke="#363837" stroke-width="1" />
  </g>
</svg>