<?xml version="1.0" encoding="utf-8"?>
<svg width="24px" height="24px" viewbox="0 0 24 24" version="1.1" xmlns:xlink="http://www.w3.org/1999/xlink" xmlns="http://www.w3.org/2000/svg">
  <defs>
    <path d="M1.999 0L18.001 0Q18.0992 0 18.1969 0.00962573Q18.2947 0.0192515 18.391 0.0384102Q18.4873 0.057569 18.5813 0.0860763Q18.6753 0.114584 18.766 0.152165Q18.8567 0.189746 18.9433 0.236039Q19.0299 0.282333 19.1116 0.336892Q19.1932 0.391452 19.2692 0.453752Q19.3451 0.516052 19.4145 0.585494Q19.4839 0.654935 19.5462 0.730848Q19.6085 0.806761 19.6631 0.888415Q19.7177 0.970069 19.764 1.05668Q19.8103 1.14329 19.8478 1.23402Q19.8854 1.32474 19.9139 1.41872Q19.9424 1.5127 19.9616 1.60901Q19.9807 1.70533 19.9904 1.80306Q20 1.9008 20 1.999L20 12.001Q20 12.0992 19.9904 12.1969Q19.9807 12.2947 19.9616 12.391Q19.9424 12.4873 19.9139 12.5813Q19.8854 12.6753 19.8478 12.766Q19.8103 12.8567 19.764 12.9433Q19.7177 13.0299 19.6631 13.1116Q19.6085 13.1932 19.5462 13.2692Q19.4839 13.3451 19.4145 13.4145Q19.3451 13.4839 19.2692 13.5462Q19.1932 13.6085 19.1116 13.6631Q19.0299 13.7177 18.9433 13.764Q18.8567 13.8103 18.766 13.8478Q18.6753 13.8854 18.5813 13.9139Q18.4873 13.9424 18.391 13.9616Q18.2947 13.9807 18.1969 13.9904Q18.0992 14 18.001 14L1.999 14Q1.9008 14 1.80306 13.9904Q1.70533 13.9807 1.60901 13.9616Q1.5127 13.9424 1.41872 13.9139Q1.32474 13.8854 1.23402 13.8478Q1.14329 13.8103 1.05668 13.764Q0.970069 13.7177 0.888415 13.6631Q0.806761 13.6085 0.730848 13.5462Q0.654935 13.4839 0.585494 13.4145Q0.516052 13.3451 0.453752 13.2692Q0.391452 13.1932 0.336892 13.1116Q0.282333 13.0299 0.236039 12.9433Q0.189746 12.8567 0.152165 12.766Q0.114584 12.6753 0.0860763 12.5813Q0.057569 12.4873 0.0384102 12.391Q0.0192515 12.2947 0.00962573 12.1969Q0 12.0992 0 12.001L0 1.999Q0 1.9008 0.00962573 1.80306Q0.0192515 1.70533 0.0384102 1.60901Q0.057569 1.5127 0.0860763 1.41872Q0.114584 1.32474 0.152165 1.23402Q0.189746 1.14329 0.236039 1.05668Q0.282333 0.970069 0.336892 0.888415Q0.391452 0.806761 0.453752 0.730848Q0.516052 0.654935 0.585494 0.585494Q0.654935 0.516052 0.730848 0.453752Q0.806761 0.391452 0.888415 0.336892Q0.970069 0.282333 1.05668 0.236039Q1.14329 0.189746 1.23402 0.152165Q1.32474 0.114584 1.41872 0.0860763Q1.5127 0.057569 1.60901 0.0384102Q1.70533 0.0192515 1.80306 0.00962573Q1.9008 0 1.999 0L1.999 0Z" transform="translate(2 5)" id="path_1" />
    <rect width="24" height="24" id="artboard_1" />
    <clipPath id="clip_1">
      <use xlink:href="#artboard_1" clip-rule="evenodd" />
    </clipPath>
    <clipPath id="clip_2">
      <use xlink:href="#path_1" />
    </clipPath>
  </defs>
  <g id="Icon--White--PIP-Video" clip-path="url(#clip_1)">
    <g id="Rectangle">
      <g clip-path="url(#clip_2)">
        <use xlink:href="#path_1" fill="none" stroke="#FFFFFF" stroke-width="2" />
      </g>
    </g>
    <path d="M0.999 0L5.001 0Q5.09939 0 5.19589 0.0191955Q5.2924 0.038391 5.3833 0.0760443Q5.4742 0.113698 5.55601 0.168362Q5.63782 0.223026 5.7074 0.2926Q5.77697 0.362175 5.83164 0.443985Q5.8863 0.525796 5.92395 0.616699Q5.96161 0.707602 5.9808 0.804105Q6 0.900607 6 0.999L6 3.001Q6 3.09939 5.9808 3.19589Q5.96161 3.2924 5.92395 3.3833Q5.8863 3.4742 5.83164 3.55601Q5.77697 3.63783 5.7074 3.7074Q5.63782 3.77697 5.55601 3.83164Q5.4742 3.8863 5.3833 3.92396Q5.2924 3.96161 5.19589 3.9808Q5.09939 4 5.001 4L0.999 4Q0.900607 4 0.804105 3.9808Q0.707602 3.96161 0.616699 3.92396Q0.525796 3.8863 0.443985 3.83164Q0.362175 3.77697 0.2926 3.7074Q0.223026 3.63783 0.168362 3.55601Q0.113698 3.4742 0.0760443 3.3833Q0.038391 3.2924 0.0191955 3.19589Q0 3.09939 0 3.001L0 0.999Q0 0.900607 0.0191955 0.804105Q0.038391 0.707602 0.0760443 0.616699Q0.113698 0.525796 0.168362 0.443985Q0.223026 0.362175 0.2926 0.2926Q0.362175 0.223026 0.443985 0.168362Q0.525796 0.113698 0.616699 0.0760443Q0.707602 0.038391 0.804105 0.0191955Q0.900607 0 0.999 0Z" transform="translate(13 12)" id="Rectangle-Copy" fill="#FFFFFF" fill-rule="evenodd" stroke="none" />
  </g>
</svg>